<mxfile host="app.diagrams.net" modified="2024-03-22T13:48:26.104Z" agent="Mozilla/5.0 (Windows NT 10.0; Win64; x64) AppleWebKit/537.36 (KHTML, like Gecko) Chrome/122.0.0.0 Safari/537.36" etag="fIfc9yjX04ECgY7r9cM8" version="24.0.8" type="device">
  <diagram name="Trang-1" id="DY-MRGse1X4FkhliGlfJ">
    <mxGraphModel dx="818" dy="837" grid="1" gridSize="10" guides="1" tooltips="1" connect="1" arrows="1" fold="1" page="1" pageScale="1" pageWidth="827" pageHeight="1169" math="0" shadow="0">
      <root>
        <mxCell id="0" />
        <mxCell id="1" parent="0" />
        <mxCell id="Wj8XYZoi6iGKnwYnU9lq-1" value="Thống kê đơn&lt;div&gt;đặt hàng&lt;/div&gt;" style="rounded=1;whiteSpace=wrap;html=1;" vertex="1" parent="1">
          <mxGeometry x="70" y="90" width="120" height="60" as="geometry" />
        </mxCell>
        <mxCell id="Wj8XYZoi6iGKnwYnU9lq-2" value="Thống kê&lt;div&gt;doanh thu&lt;/div&gt;" style="rounded=1;whiteSpace=wrap;html=1;" vertex="1" parent="1">
          <mxGeometry x="60" y="260" width="120" height="60" as="geometry" />
        </mxCell>
        <mxCell id="Wj8XYZoi6iGKnwYnU9lq-3" value="Thống kê&lt;div&gt;số lượng&lt;/div&gt;" style="rounded=1;whiteSpace=wrap;html=1;" vertex="1" parent="1">
          <mxGeometry x="70" y="400" width="120" height="60" as="geometry" />
        </mxCell>
        <mxCell id="Wj8XYZoi6iGKnwYnU9lq-4" value="Thống kê&lt;div&gt;số người&amp;nbsp;&lt;/div&gt;&lt;div&gt;truy cập&lt;/div&gt;" style="rounded=1;whiteSpace=wrap;html=1;" vertex="1" parent="1">
          <mxGeometry x="80" y="610" width="120" height="60" as="geometry" />
        </mxCell>
        <mxCell id="Wj8XYZoi6iGKnwYnU9lq-5" value="Thống kê hàng&lt;div&gt;trong kho&lt;/div&gt;" style="rounded=1;whiteSpace=wrap;html=1;" vertex="1" parent="1">
          <mxGeometry x="80" y="740" width="120" height="60" as="geometry" />
        </mxCell>
        <mxCell id="Wj8XYZoi6iGKnwYnU9lq-6" value="Đơn đặt hàng" style="ellipse;whiteSpace=wrap;html=1;" vertex="1" parent="1">
          <mxGeometry x="500" y="30" width="120" height="80" as="geometry" />
        </mxCell>
        <mxCell id="Wj8XYZoi6iGKnwYnU9lq-7" value="Kho" style="ellipse;whiteSpace=wrap;html=1;" vertex="1" parent="1">
          <mxGeometry x="480" y="790" width="90" height="60" as="geometry" />
        </mxCell>
        <mxCell id="Wj8XYZoi6iGKnwYnU9lq-8" value="Nhà quản trị" style="whiteSpace=wrap;html=1;aspect=fixed;" vertex="1" parent="1">
          <mxGeometry x="800" y="140" width="140" height="140" as="geometry" />
        </mxCell>
        <mxCell id="Wj8XYZoi6iGKnwYnU9lq-9" value="Hóa đơn" style="ellipse;whiteSpace=wrap;html=1;" vertex="1" parent="1">
          <mxGeometry x="500" y="160" width="120" height="80" as="geometry" />
        </mxCell>
        <mxCell id="Wj8XYZoi6iGKnwYnU9lq-10" value="" style="endArrow=classic;html=1;rounded=0;exitX=0;exitY=0.5;exitDx=0;exitDy=0;entryX=0.5;entryY=0;entryDx=0;entryDy=0;" edge="1" parent="1" source="Wj8XYZoi6iGKnwYnU9lq-6" target="Wj8XYZoi6iGKnwYnU9lq-1">
          <mxGeometry width="50" height="50" relative="1" as="geometry">
            <mxPoint x="310" y="120" as="sourcePoint" />
            <mxPoint x="360" y="70" as="targetPoint" />
            <Array as="points">
              <mxPoint x="130" y="70" />
            </Array>
          </mxGeometry>
        </mxCell>
        <mxCell id="Wj8XYZoi6iGKnwYnU9lq-11" value="" style="endArrow=classic;html=1;rounded=0;exitX=0.5;exitY=0;exitDx=0;exitDy=0;entryX=1;entryY=0.75;entryDx=0;entryDy=0;" edge="1" parent="1" source="Wj8XYZoi6iGKnwYnU9lq-9" target="Wj8XYZoi6iGKnwYnU9lq-1">
          <mxGeometry width="50" height="50" relative="1" as="geometry">
            <mxPoint x="340" y="220" as="sourcePoint" />
            <mxPoint x="390" y="170" as="targetPoint" />
            <Array as="points">
              <mxPoint x="560" y="140" />
            </Array>
          </mxGeometry>
        </mxCell>
        <mxCell id="Wj8XYZoi6iGKnwYnU9lq-12" value="Hóa đơn" style="ellipse;whiteSpace=wrap;html=1;" vertex="1" parent="1">
          <mxGeometry x="580" y="440" width="120" height="80" as="geometry" />
        </mxCell>
        <mxCell id="Wj8XYZoi6iGKnwYnU9lq-13" value="Danh mục&amp;nbsp;&lt;br&gt;sản phẩm" style="ellipse;whiteSpace=wrap;html=1;" vertex="1" parent="1">
          <mxGeometry x="440" y="490" width="110" height="60" as="geometry" />
        </mxCell>
        <mxCell id="Wj8XYZoi6iGKnwYnU9lq-14" value="Truy cập" style="ellipse;whiteSpace=wrap;html=1;" vertex="1" parent="1">
          <mxGeometry x="590" y="550" width="120" height="50" as="geometry" />
        </mxCell>
        <mxCell id="Wj8XYZoi6iGKnwYnU9lq-15" value="" style="endArrow=classic;html=1;rounded=0;exitX=0;exitY=0.75;exitDx=0;exitDy=0;entryX=1;entryY=0.5;entryDx=0;entryDy=0;" edge="1" parent="1" source="Wj8XYZoi6iGKnwYnU9lq-8" target="Wj8XYZoi6iGKnwYnU9lq-2">
          <mxGeometry width="50" height="50" relative="1" as="geometry">
            <mxPoint x="690" y="270" as="sourcePoint" />
            <mxPoint x="470" y="290" as="targetPoint" />
            <Array as="points">
              <mxPoint x="697" y="290" />
            </Array>
          </mxGeometry>
        </mxCell>
        <mxCell id="Wj8XYZoi6iGKnwYnU9lq-16" value="" style="endArrow=classic;html=1;rounded=0;exitX=1;exitY=1;exitDx=0;exitDy=0;entryX=0.25;entryY=1;entryDx=0;entryDy=0;" edge="1" parent="1" source="Wj8XYZoi6iGKnwYnU9lq-2" target="Wj8XYZoi6iGKnwYnU9lq-8">
          <mxGeometry width="50" height="50" relative="1" as="geometry">
            <mxPoint x="290" y="390" as="sourcePoint" />
            <mxPoint x="340" y="340" as="targetPoint" />
            <Array as="points">
              <mxPoint x="710" y="320" />
            </Array>
          </mxGeometry>
        </mxCell>
        <mxCell id="Wj8XYZoi6iGKnwYnU9lq-17" value="" style="endArrow=classic;html=1;rounded=0;exitX=0.426;exitY=1.028;exitDx=0;exitDy=0;exitPerimeter=0;entryX=1.019;entryY=0.13;entryDx=0;entryDy=0;entryPerimeter=0;" edge="1" parent="1" source="Wj8XYZoi6iGKnwYnU9lq-8" target="Wj8XYZoi6iGKnwYnU9lq-3">
          <mxGeometry width="50" height="50" relative="1" as="geometry">
            <mxPoint x="370" y="410" as="sourcePoint" />
            <mxPoint x="420" y="360" as="targetPoint" />
            <Array as="points">
              <mxPoint x="730" y="400" />
            </Array>
          </mxGeometry>
        </mxCell>
        <mxCell id="Wj8XYZoi6iGKnwYnU9lq-18" value="" style="endArrow=classic;html=1;rounded=0;exitX=1;exitY=0.5;exitDx=0;exitDy=0;entryX=0.63;entryY=1.028;entryDx=0;entryDy=0;entryPerimeter=0;" edge="1" parent="1" source="Wj8XYZoi6iGKnwYnU9lq-3" target="Wj8XYZoi6iGKnwYnU9lq-8">
          <mxGeometry width="50" height="50" relative="1" as="geometry">
            <mxPoint x="280" y="500" as="sourcePoint" />
            <mxPoint x="330" y="450" as="targetPoint" />
            <Array as="points">
              <mxPoint x="750" y="430" />
            </Array>
          </mxGeometry>
        </mxCell>
        <mxCell id="Wj8XYZoi6iGKnwYnU9lq-19" value="" style="endArrow=classic;html=1;rounded=0;exitX=1;exitY=0.75;exitDx=0;exitDy=0;entryX=0;entryY=0.5;entryDx=0;entryDy=0;" edge="1" parent="1" source="Wj8XYZoi6iGKnwYnU9lq-3" target="Wj8XYZoi6iGKnwYnU9lq-12">
          <mxGeometry width="50" height="50" relative="1" as="geometry">
            <mxPoint x="180" y="510" as="sourcePoint" />
            <mxPoint x="570" y="460" as="targetPoint" />
          </mxGeometry>
        </mxCell>
        <mxCell id="Wj8XYZoi6iGKnwYnU9lq-20" value="" style="endArrow=classic;html=1;rounded=0;exitX=1;exitY=0.25;exitDx=0;exitDy=0;entryX=0;entryY=0.5;entryDx=0;entryDy=0;" edge="1" parent="1" source="Wj8XYZoi6iGKnwYnU9lq-4" target="Wj8XYZoi6iGKnwYnU9lq-14">
          <mxGeometry width="50" height="50" relative="1" as="geometry">
            <mxPoint x="290" y="570" as="sourcePoint" />
            <mxPoint x="340" y="520" as="targetPoint" />
          </mxGeometry>
        </mxCell>
        <mxCell id="Wj8XYZoi6iGKnwYnU9lq-21" value="" style="endArrow=classic;html=1;rounded=0;exitX=0;exitY=0.5;exitDx=0;exitDy=0;entryX=0.5;entryY=0;entryDx=0;entryDy=0;" edge="1" parent="1" source="Wj8XYZoi6iGKnwYnU9lq-13" target="Wj8XYZoi6iGKnwYnU9lq-4">
          <mxGeometry width="50" height="50" relative="1" as="geometry">
            <mxPoint x="340" y="550" as="sourcePoint" />
            <mxPoint x="390" y="500" as="targetPoint" />
            <Array as="points">
              <mxPoint x="140" y="520" />
            </Array>
          </mxGeometry>
        </mxCell>
        <mxCell id="Wj8XYZoi6iGKnwYnU9lq-22" value="" style="endArrow=classic;html=1;rounded=0;exitX=1;exitY=0.5;exitDx=0;exitDy=0;entryX=0.75;entryY=1;entryDx=0;entryDy=0;" edge="1" parent="1" source="Wj8XYZoi6iGKnwYnU9lq-4" target="Wj8XYZoi6iGKnwYnU9lq-8">
          <mxGeometry width="50" height="50" relative="1" as="geometry">
            <mxPoint x="340" y="710" as="sourcePoint" />
            <mxPoint x="390" y="660" as="targetPoint" />
            <Array as="points">
              <mxPoint x="870" y="620" />
            </Array>
          </mxGeometry>
        </mxCell>
        <mxCell id="Wj8XYZoi6iGKnwYnU9lq-23" value="" style="endArrow=classic;html=1;rounded=0;entryX=1;entryY=0.75;entryDx=0;entryDy=0;exitX=0.898;exitY=1.028;exitDx=0;exitDy=0;exitPerimeter=0;" edge="1" parent="1" source="Wj8XYZoi6iGKnwYnU9lq-8" target="Wj8XYZoi6iGKnwYnU9lq-4">
          <mxGeometry width="50" height="50" relative="1" as="geometry">
            <mxPoint x="370" y="690" as="sourcePoint" />
            <mxPoint x="420" y="640" as="targetPoint" />
            <Array as="points">
              <mxPoint x="900" y="650" />
            </Array>
          </mxGeometry>
        </mxCell>
        <mxCell id="Wj8XYZoi6iGKnwYnU9lq-24" value="" style="endArrow=classic;html=1;rounded=0;exitX=1;exitY=0.75;exitDx=0;exitDy=0;entryX=0;entryY=0.5;entryDx=0;entryDy=0;" edge="1" parent="1" source="Wj8XYZoi6iGKnwYnU9lq-5" target="Wj8XYZoi6iGKnwYnU9lq-7">
          <mxGeometry width="50" height="50" relative="1" as="geometry">
            <mxPoint x="340" y="710" as="sourcePoint" />
            <mxPoint x="390" y="660" as="targetPoint" />
          </mxGeometry>
        </mxCell>
        <mxCell id="Wj8XYZoi6iGKnwYnU9lq-25" value="" style="endArrow=classic;html=1;rounded=0;exitX=1;exitY=0;exitDx=0;exitDy=0;entryX=1;entryY=1;entryDx=0;entryDy=0;" edge="1" parent="1" source="Wj8XYZoi6iGKnwYnU9lq-5" target="Wj8XYZoi6iGKnwYnU9lq-8">
          <mxGeometry width="50" height="50" relative="1" as="geometry">
            <mxPoint x="220" y="690" as="sourcePoint" />
            <mxPoint x="590" y="680" as="targetPoint" />
            <Array as="points">
              <mxPoint x="940" y="690" />
            </Array>
          </mxGeometry>
        </mxCell>
        <mxCell id="Wj8XYZoi6iGKnwYnU9lq-26" value="" style="endArrow=classic;html=1;rounded=0;exitX=1;exitY=0.75;exitDx=0;exitDy=0;entryX=1;entryY=0.5;entryDx=0;entryDy=0;" edge="1" parent="1" source="Wj8XYZoi6iGKnwYnU9lq-8" target="Wj8XYZoi6iGKnwYnU9lq-5">
          <mxGeometry width="50" height="50" relative="1" as="geometry">
            <mxPoint x="700" y="750" as="sourcePoint" />
            <mxPoint x="750" y="700" as="targetPoint" />
            <Array as="points">
              <mxPoint x="1000" y="250" />
              <mxPoint x="1000" y="730" />
            </Array>
          </mxGeometry>
        </mxCell>
        <mxCell id="Wj8XYZoi6iGKnwYnU9lq-27" value="Thông tin đơn đặt hàng" style="text;html=1;align=center;verticalAlign=middle;resizable=0;points=[];autosize=1;strokeColor=none;fillColor=none;" vertex="1" parent="1">
          <mxGeometry x="220" y="30" width="150" height="30" as="geometry" />
        </mxCell>
        <mxCell id="Wj8XYZoi6iGKnwYnU9lq-28" value="Yêu cầu thống kê đơn đặt hàng&lt;div&gt;Báo cáo đơn đặt hàng&lt;/div&gt;&lt;div&gt;Thông tin hóa đơn hàng bán&lt;/div&gt;" style="text;html=1;align=center;verticalAlign=middle;resizable=0;points=[];autosize=1;strokeColor=none;fillColor=none;" vertex="1" parent="1">
          <mxGeometry x="250" y="150" width="190" height="60" as="geometry" />
        </mxCell>
        <mxCell id="Wj8XYZoi6iGKnwYnU9lq-29" value="Yêu cầu báo cáo doanh thu" style="text;html=1;align=center;verticalAlign=middle;resizable=0;points=[];autosize=1;strokeColor=none;fillColor=none;" vertex="1" parent="1">
          <mxGeometry x="245" y="258" width="170" height="30" as="geometry" />
        </mxCell>
        <mxCell id="Wj8XYZoi6iGKnwYnU9lq-30" value="Báo cáo doanh thu" style="text;html=1;align=center;verticalAlign=middle;resizable=0;points=[];autosize=1;strokeColor=none;fillColor=none;" vertex="1" parent="1">
          <mxGeometry x="390" y="320" width="120" height="30" as="geometry" />
        </mxCell>
        <mxCell id="Wj8XYZoi6iGKnwYnU9lq-31" value="Yêu cầu báo cáo số lượng" style="text;html=1;align=center;verticalAlign=middle;resizable=0;points=[];autosize=1;strokeColor=none;fillColor=none;" vertex="1" parent="1">
          <mxGeometry x="220" y="368" width="160" height="30" as="geometry" />
        </mxCell>
        <mxCell id="Wj8XYZoi6iGKnwYnU9lq-32" value="Báo cáo số lượng sản phẩm" style="text;html=1;align=center;verticalAlign=middle;resizable=0;points=[];autosize=1;strokeColor=none;fillColor=none;" vertex="1" parent="1">
          <mxGeometry x="415" y="398" width="170" height="30" as="geometry" />
        </mxCell>
        <mxCell id="Wj8XYZoi6iGKnwYnU9lq-33" value="Thông tin hóa đơn" style="text;html=1;align=center;verticalAlign=middle;resizable=0;points=[];autosize=1;strokeColor=none;fillColor=none;" vertex="1" parent="1">
          <mxGeometry x="350" y="438" width="120" height="30" as="geometry" />
        </mxCell>
        <mxCell id="Wj8XYZoi6iGKnwYnU9lq-34" value="Thông tin sản phẩm" style="text;html=1;align=center;verticalAlign=middle;resizable=0;points=[];autosize=1;strokeColor=none;fillColor=none;" vertex="1" parent="1">
          <mxGeometry x="200" y="490" width="130" height="30" as="geometry" />
        </mxCell>
        <mxCell id="Wj8XYZoi6iGKnwYnU9lq-35" value="IT truy cập" style="text;html=1;align=center;verticalAlign=middle;resizable=0;points=[];autosize=1;strokeColor=none;fillColor=none;" vertex="1" parent="1">
          <mxGeometry x="250" y="568" width="80" height="30" as="geometry" />
        </mxCell>
        <mxCell id="Wj8XYZoi6iGKnwYnU9lq-36" value="Trả lời yêu cầu thống kê" style="text;html=1;align=center;verticalAlign=middle;resizable=0;points=[];autosize=1;strokeColor=none;fillColor=none;" vertex="1" parent="1">
          <mxGeometry x="445" y="598" width="150" height="30" as="geometry" />
        </mxCell>
        <mxCell id="Wj8XYZoi6iGKnwYnU9lq-37" value="Yêu cầu thống kê" style="text;html=1;align=center;verticalAlign=middle;resizable=0;points=[];autosize=1;strokeColor=none;fillColor=none;" vertex="1" parent="1">
          <mxGeometry x="380" y="648" width="120" height="30" as="geometry" />
        </mxCell>
        <mxCell id="Wj8XYZoi6iGKnwYnU9lq-38" value="Trả lời yêu cầu thống kê" style="text;html=1;align=center;verticalAlign=middle;resizable=0;points=[];autosize=1;strokeColor=none;fillColor=none;" vertex="1" parent="1">
          <mxGeometry x="275" y="698" width="150" height="30" as="geometry" />
        </mxCell>
        <mxCell id="Wj8XYZoi6iGKnwYnU9lq-40" value="Yêu cầu thống kê" style="text;html=1;align=center;verticalAlign=middle;resizable=0;points=[];autosize=1;strokeColor=none;fillColor=none;" vertex="1" parent="1">
          <mxGeometry x="660" y="708" width="120" height="30" as="geometry" />
        </mxCell>
        <mxCell id="Wj8XYZoi6iGKnwYnU9lq-42" value="Thông tin hàng" style="text;html=1;align=center;verticalAlign=middle;resizable=0;points=[];autosize=1;strokeColor=none;fillColor=none;" vertex="1" parent="1">
          <mxGeometry x="260" y="805" width="100" height="30" as="geometry" />
        </mxCell>
      </root>
    </mxGraphModel>
  </diagram>
</mxfile>
